:FULLY-SPECIFIED
:DEGREES
40
root -0.567874014377594 -0.567874014377594 -0.567874014377594 -0.5678755879732001 -0.5678755879732001 -0.5678755879732001
lhipjoint -9.671654586443837e-08 -1.5341245206083327e-07 1.0672170578144923e-06
lfemur -49.41605322992166 8.386079795958622 -17.384482635914303
ltibia 59.66180485289893 -4.188304221398875e-06 -5.228500100861651e-07
lfoot -22.40365397768734 -5.140688293883312e-07 -2.0228277573739186
ltoes -54.62328017011266 -5.271471684607595e-07 1.635137308847617e-06
rhipjoint 1.1005675908711953e-07 6.870210827458292e-07 -1.494104084495789e-06
rfemur -55.289001633040876 -7.00534552929632 12.001077796271991
rtibia 78.95230129557677 5.473062670094488e-06 -4.608500582363369e-06
rfoot -35.91631752408027 2.8229280241922686e-07 7.016882999464941
rtoes -20.306191676035635 -1.1346102126265845e-07 -2.2647584887016377e-06
lowerback 30.199008641578132 2.695315589892092 -1.1709816118504435
upperback 2.8642122942447554 3.080743164755911 0.6080509741146267
thorax -13.361379125145378 1.4843776915621911 0.35010191651779293
lowerneck -11.457395592112624 -2.029057957114028 -1.9248847656666397
upperneck 23.5797988923852 -3.0151462414105206 2.3060364286666197
head 9.370881229926802 -1.331763944747426 0.7745436119620046
lclavicle -1.4085775951116125e-07 5.4855408257763046e-08 -1.0938974842598547e-06
lhumerus 7.841104978498828 -30.557777988111393 88.07380719626453
lradius 98.73395664147023 -4.553317704195603e-07 9.062867311975274e-06
lwrist -3.9360916293795576e-07 -25.352738416002087 9.490821605585483e-08
lhand -4.562975323145072 2.6246558075710764e-07 -26.656099019086014
lfingers 7.125022823272814 9.845282338726802e-08 3.18924141240953e-07
lthumb 21.213298854421275 -1.2803152392500461e-07 2.20318914769186
rclavicle 1.398304276268298e-07 4.3880174074018323e-07 -1.3740421654916584e-06
rhumerus 1.7679276588699815 13.44356252255991 -84.13930404563537
rradius 101.75391112261303 -5.841693537674851e-06 -1.7651482878730647e-05
rwrist 3.680738379556701e-07 38.65370366416506 8.228001325416295e-07
rhand -6.972260092956778 2.0321462048512455e-07 -36.68780446630613
rfingers 7.125022396385991 5.1024341088409163e-08 -3.1892353057445414e-07
rthumb 18.897492480477187 1.5447771905696147e-06 -65.78980959509936
41
root -0.567874014377594 -0.567874014377594 -0.567874014377594 -0.5678755879732001 -0.5678755879732001 -0.5678755879732001
lhipjoint -9.671654586443837e-08 -1.5341245206083327e-07 1.0672170578144923e-06
lfemur -47.20739544858215 8.811521180301314 -17.91259457008698
ltibia 57.20872875211051 -3.5197652655737173e-06 -6.864876655590917e-07
lfoot -21.083405731880557 1.7482201239919934e-06 -1.5982496449092918
ltoes -54.918040398839146 -6.893429258299537e-08 2.500519928797678e-06
rhipjoint 1.1005675908711953e-07 6.870210827458292e-07 -1.494104084495789e-06
rfemur -49.86322229978781 -5.443815301530134 11.326092035508298
rtibia 69.25333022132112 3.6361986042417348e-06 -3.972578952685307e-06
rfoot -32.84663243559061 -2.1167481960450513e-07 3.8722353041739206
rtoes -18.516849453126962 -7.77668723167036e-07 -1.9378003172241826e-06
lowerback 29.731991041983925 2.4154280980833094 -1.902426463345403
upperback 3.881268229351263 2.572126298021742 1.1901198019048191
thorax -11.906146704545277 1.3244008941004466 1.604616555154507
lowerneck -11.457395592112624 -2.029057957114028 -1.9248847656666397
upperneck 23.5797988923852 -3.0151462414105206 2.3060364286666197
head 9.370881229926802 -1.331763944747426 0.7745436119620046
lclavicle -1.4085775951116125e-07 5.4855408257763046e-08 -1.0938974842598547e-06
lhumerus 17.377165795765926 -30.16694431851951 82.30140942301165
lradius 86.68427351151713 -2.154134827548094e-06 8.825262676830233e-06
lwrist -5.397849116542738e-07 -32.215837144983254 1.3015418795275717e-07
lhand -4.562975323145072 2.6246558075710764e-07 -26.656099019086014
lfingers 7.125022823272814 9.845282338726802e-08 3.18924141240953e-07
lthumb 21.213298854421275 -1.2803152392500461e-07 2.20318914769186
rclavicle 1.398304276268298e-07 4.3880174074018323e-07 -1.3740421654916584e-06
rhumerus 13.015774114463671 14.598028416832145 -77.94745752526283
rradius 92.22135077729557 -3.024723990067273e-06 -1.451060360680783e-05
rwrist 3.4394826203039636e-07 37.04014318973583 7.688715124736075e-07
rhand -6.972260092956778 2.0321462048512455e-07 -36.68780446630613
rfingers 7.125022396385991 5.1024341088409163e-08 -3.1892353057445414e-07
rthumb 18.897492480477187 1.5447771905696147e-06 -65.78980959509936
42
root -0.567874014377594 -0.567874014377594 -0.567874014377594 -0.5678755879732001 -0.5678755879732001 -0.5678755879732001
lhipjoint -9.671654586443837e-08 -1.5341245206083327e-07 1.0672170578144923e-06
lfemur -44.74553913961567 9.271257798240288 -18.654952463050034
ltibia 54.295246674844456 -4.061329964738864e-06 -4.024422502881911e-07
lfoot -19.668328847184608 8.498016677876324e-07 -1.1695462049076828
ltoes -55.239913063475996 -1.3901948032747518e-06 -4.82735938443799e-08
rhipjoint 1.1005675908711953e-07 6.870210827458292e-07 -1.494104084495789e-06
rfemur -44.565372409689076 -3.600208506326177 10.427267315264945
rtibia 59.75649176536282 3.685395525832362e-06 -2.922763854532787e-06
rfoot -29.99234419276647 7.870308512607673e-07 0.36559049103870755
rtoes -16.867066777981865 -1.431873707820398e-06 -1.4479818687268259e-06
lowerback 30.23838126704867 2.1710578034020047 -2.6651404544692103
upperback 4.620963629198481 2.1073726926939824 1.7195822992641618
thorax -11.204426729596507 1.1750109965739277 2.7630986006587097
lowerneck -11.457395592112624 -2.029057957114028 -1.9248847656666397
upperneck 23.5797988923852 -3.0151462414105206 2.3060364286666197
head 9.370881229926802 -1.331763944747426 0.7745436119620046
lclavicle -1.4085775951116125e-07 5.4855408257763046e-08 -1.0938974842598547e-06
lhumerus 25.07711808487727 -29.98664098480951 76.57235603023167
lradius 75.47998338570403 -2.3001059012095504e-06 5.452093196746286e-06
lwrist -6.099886081384068e-07 -35.04992510333708 1.4708352991128265e-07
lhand -4.562975323145072 2.6246558075710764e-07 -26.656099019086014
lfingers 7.125022823272814 9.845282338726802e-08 3.18924141240953e-07
lthumb 21.213298854421275 -1.2803152392500461e-07 2.20318914769186
rclavicle 1.398304276268298e-07 4.3880174074018323e-07 -1.3740421654916584e-06
rhumerus 23.264570294263475 15.182813845643004 -71.75508508032422
rradius 82.01238996828256 -3.155621575426838e-06 -1.393249133190905e-05
rwrist 3.189524354553993e-07 35.25831759000875 7.129934922746603e-07
rhand -6.972260092956778 2.0321462048512455e-07 -36.68780446630613
rfingers 7.125022396385991 5.1024341088409163e-08 -3.1892353057445414e-07
rthumb 18.897492480477187 1.5447771905696147e-06 -65.78980959509936
43
root -0.567874014377594 -0.567874014377594 -0.567874014377594 -0.5678755879732001 -0.5678755879732001 -0.5678755879732001
lhipjoint -9.671654586443837e-08 -1.5341245206083327e-07 1.0672170578144923e-06
lfemur -42.1805947855062 9.514374966652307 -19.265120582363952
ltibia 50.911977356275756 -2.559500745477236e-06 -7.059288442161935e-07
lfoot -18.23931837658183 -6.329096189502792e-07 -0.629332082660241
ltoes -55.61076501465101 -2.8281810283041737e-08 2.5272856449973783e-06
rhipjoint 1.1005675908711953e-07 6.870210827458292e-07 -1.494104084495789e-06
rfemur -39.73775713828363 -1.671226801096293 9.589746104143398
rtibia 50.97879709692599 3.730895065328007e-06 -3.455082655794481e-06
rfoot -27.53313458210338 1.1302839458155454e-06 -3.246310578775017
rtoes -15.38978223787273 -4.657237875635869e-07 -1.6715953201614222e-06
lowerback 31.549726361272345 1.9209768302443346 -3.1161918465482774
upperback 4.99908332853721 1.7201009667542597 2.1148869679980544
thorax -11.251969115088027 1.0308530239516387 3.53474605233007
lowerneck -11.457395592112624 -2.029057957114028 -1.9248847656666397
upperneck 23.5797988923852 -3.0151462414105206 2.3060364286666197
head 9.370881229926802 -1.331763944747426 0.7745436119620046
lclavicle -1.4085775951116125e-07 5.4855408257763046e-08 -1.0938974842598547e-06
lhumerus 32.6651474791542 -29.580313031085453 71.9483521130789
lradius 65.78973446301848 -3.4411586453989077e-07 5.38742076474203e-06
lwrist -6.092262419034787e-07 -35.020568950284364 1.468989686842267e-07
lhand -4.562975323145072 2.6246558075710764e-07 -26.656099019086014
lfingers 7.125022823272814 9.845282338726802e-08 3.18924141240953e-07
lthumb 21.213298854421275 -1.2803152392500461e-07 2.20318914769186
rclavicle 1.398304276268298e-07 4.3880174074018323e-07 -1.3740421654916584e-06
rhumerus 32.80845167813024 15.31653187411893 -66.77375981674221
rradius 72.6718399009125 -1.2320444951826607e-06 -1.021845269750405e-05
rwrist 2.967778881050476e-07 33.57632886537975 6.634207563428711e-07
rhand -6.972260092956778 2.0321462048512455e-07 -36.68780446630613
rfingers 7.125022396385991 5.1024341088409163e-08 -3.1892353057445414e-07
rthumb 18.897492480477187 1.5447771905696147e-06 -65.78980959509936
